<svg width="20" height="20" viewBox="0 0 20 20" fill="none" xmlns="http://www.w3.org/2000/svg">
<path d="M15.9341 13.1319V2.85714C15.9341 1.26374 14.6703 0 13.0769 0H2.85714C1.26374 0 0 1.26374 0 2.85714V13.1319C0 14.7253 1.26374 15.989 2.85714 15.989H13.1319C14.6703 15.9341 15.9341 14.6703 15.9341 13.1319ZM18.3516 5.05494V13.9011C18.3516 16.3736 16.3187 18.4066 13.8462 18.4066H5C4.67033 18.4066 4.50549 18.7912 4.72527 19.011C5.27472 19.6154 6.04396 20 6.97802 20H14.3407C17.4725 20 20 17.4725 20 14.3407V6.97802C20 6.0989 19.6154 5.27472 19.011 4.72527C18.7363 4.50549 18.3516 4.72527 18.3516 5.05494Z" fill="white"/>
</svg>
