<svg width="20" height="20" viewBox="0 0 20 20" fill="none" xmlns="http://www.w3.org/2000/svg">
<path d="M19.734 5.98134L14.0189 0.266036C13.8485 0.0956931 13.6175 0 13.3766 0C13.1356 0 12.9046 0.0956931 12.7342 0.266036C11.8586 1.12948 11.3554 2.3012 11.3322 3.53076L6.52759 7.07806C5.75527 6.91065 4.95316 6.94114 4.19578 7.16672C3.4384 7.39229 2.75031 7.80562 2.19542 8.36832C2.02509 8.53871 1.9294 8.76979 1.9294 9.01072C1.9294 9.25166 2.02509 9.48273 2.19542 9.65313L5.62899 13.0859L0.277382 18.4378C0.190603 18.5216 0.121384 18.6219 0.0737656 18.7327C0.0261472 18.8436 0.00108265 18.9628 3.43055e-05 19.0835C-0.00101404 19.2041 0.0219749 19.3238 0.0676597 19.4354C0.113345 19.5471 0.18081 19.6486 0.26612 19.7339C0.351431 19.8192 0.452877 19.8867 0.564539 19.9323C0.676202 19.978 0.795845 20.001 0.916487 20C1.03713 19.9989 1.15636 19.9739 1.26721 19.9262C1.37806 19.8786 1.47832 19.8094 1.56213 19.7226L6.91374 14.3708L10.3464 17.8045C10.5168 17.9748 10.7478 18.0705 10.9888 18.0705C11.2297 18.0705 11.4608 17.9748 11.6312 17.8045C12.1931 17.2488 12.6058 16.5605 12.8313 15.8031C13.0569 15.0457 13.0878 14.2437 12.9214 13.4712L16.4694 8.66726C17.6989 8.6441 18.8706 8.14091 19.734 7.26524C19.9043 7.09485 20 6.86377 20 6.62284C20 6.3819 19.9043 6.15083 19.734 5.98043V5.98134Z" fill="white"/>
</svg>
