<svg width="20" height="20" viewBox="0 0 20 20" fill="none" xmlns="http://www.w3.org/2000/svg">
<path d="M19.94 5.87936C19.8837 4.6439 19.6621 3.93259 19.4758 3.45294C19.2252 2.78436 18.8307 2.17901 18.3203 1.67969C17.8211 1.17001 17.2161 0.776169 16.548 0.525981C16.0665 0.337936 15.3561 0.117187 14.1197 0.0599564C13.0296 0.0109011 12.7053 0 10 0C7.2947 0 6.96948 0.0109011 5.87936 0.0599564C4.6439 0.116279 3.93259 0.337936 3.45203 0.524164C2.75345 0.796693 2.20658 1.1528 1.67969 1.67969C1.1528 2.20658 0.795785 2.75345 0.525981 3.45203C0.337936 3.9335 0.117187 4.6439 0.0599564 5.88027C0.0109011 6.97039 0 7.2947 0 10C0 12.7053 0.0109011 13.0305 0.0599564 14.1206C0.116279 15.3561 0.337936 16.0674 0.524164 16.5471C0.794877 17.2465 1.15098 17.7943 1.67969 18.3203C2.20658 18.8481 2.75345 19.2051 3.45203 19.474C3.9335 19.6621 4.64299 19.8828 5.88027 19.94C6.96948 19.9891 7.2947 20 10 20C12.7053 20 13.0305 19.9891 14.1206 19.94C15.3561 19.8837 16.0674 19.6621 16.5471 19.4758C17.216 19.225 17.8217 18.8302 18.3212 18.3194C18.8481 17.7925 19.2042 17.2465 19.4749 16.548C19.6621 16.0665 19.8837 15.3561 19.94 14.1197C19.9891 13.0296 20 12.7053 20 10C20 7.2947 19.9891 6.96948 19.94 5.87936ZM13.5038 11.3799L8.73456 14.1052C7.67442 14.7111 6.35538 13.9462 6.35538 12.7253V7.27471C6.35538 6.05378 7.67442 5.28888 8.73456 5.8939L13.5038 8.61919C14.5712 9.22965 14.5712 10.7704 13.5038 11.3808V11.3799Z" fill="white"/>
</svg>
